<svg xmlns="http://www.w3.org/2000/svg" width="256" height="256"><path fill-opacity=".016" d="M0 128.004v128.004l128.25-.254 128.25-.254.254-127.75L257.008 0H0v128.004m.485.496c0 70.4.119 99.053.265 63.672.146-35.38.146-92.98 0-128C.604 29.153.485 58.1.485 128.5" fill="#1976D2" fill-rule="evenodd"/><path fill-opacity=".203" d="M171.42 30.268c-7.007 6.236-11.557 9.575-16.67 12.236-2.062 1.073-3.75 2.298-3.75 2.723 0 .425-.633.773-1.408.773-.774 0-3.586 1.068-6.25 2.374C135.654 52.144 121.33 56 115.018 56c-5.229 0-12.188 2.181-22.012 6.9-16.398 7.877-32.297 28.416-38.009 49.1-3.792 13.735-3.952 14.046-6.827 13.368-3.377-.798-8.451-4.546-10.983-8.116C34.71 113.761 32 103.255 32 97.142c0-5.046-1.47-7.912-6.359-12.392-2.656-2.434-3.78-2.75-9.77-2.75-6.604 0-6.881.105-11.32 4.299L0 90.597v12.702C0 110.284.399 116 .887 116c.487 0 1.129 1.237 1.425 2.75 2.509 12.803 14.815 28.55 26.853 34.36 8.775 4.235 17.474 6.901 22.502 6.895 2.291-.003 4.316.333 4.5.745.306.69 11.004 8.1 13.355 9.25.562.275 3.131 1.972 5.71 3.771l4.689 3.271-.598 6.729c-.329 3.701-.986 7.487-1.46 8.413-.475.927-.861 4.302-.859 7.5.005 7.767 2.277 11.256 10.782 16.561 3.752 2.34 7.698 4.82 8.768 5.511 1.07.691 2.621 1.545 3.446 1.898.825.353 2.85 1.614 4.5 2.802 10.307 7.421 20.862 7.137 26.148-.703 2.322-3.445 2.91-3.432 5.905.128 4.375 5.199 7.824 6.119 22.944 6.119 11.189 0 14.265-.32 16.811-1.75 6.441-3.617 9.692-8.808 9.692-15.474 0-4.133-5.412-12.776-8-12.776-.55 0-1-.435-1-.966 0-.531-2.244-1.263-4.987-1.627-4.745-.629-4.96-.789-4.422-3.284.31-1.443.952-3.523 1.425-4.623.473-1.1 1.087-3.575 1.364-5.5.276-1.925 1.243-6.425 2.148-10 .904-3.575 2.022-8.525 2.485-11 .87-4.658 2.488-11.242 4.074-16.571.502-1.689.913-3.781.913-4.65 0-.868 1.609-3.986 3.575-6.929 4.096-6.13 3.14-4.765 16.913-24.132C206.269 104.588 211 97.707 211 97.426c0-.28.81-1.379 1.799-2.441 1.602-1.719 3.479-1.961 17.143-2.208 12.469-.225 15.474-.558 16.045-1.777.386-.825 1.165-2.415 1.73-3.533.566-1.118 1.346-3.475 1.733-5.238.387-1.763 1.119-3.463 1.627-3.777.508-.313.923-1.599.923-2.857 0-1.258.767-3.819 1.705-5.691 1.126-2.249 1.72-5.904 1.75-10.771l.045-7.367-4.5-1.33c-2.475-.732-6.997-2.062-10.049-2.957-4.811-1.41-6.208-2.446-10.5-7.79-7.148-8.898-8.742-10.814-10.701-12.86-1.583-1.655-3.69-1.829-22.08-1.829h-20.329l-5.921 5.268m17.888 7.482c.235.413 1.199 2.55 2.143 4.75.944 2.2 2.384 5.542 3.201 7.427l1.485 3.427 2.181-4.427c1.2-2.435 2.52-4.577 2.932-4.76.412-.184.75-.916.75-1.628 0-.712.675-1.854 1.5-2.539 2.852-2.367 1.468-3-6.559-3-4.432 0-7.867.337-7.633.75m-18.473 9.146c-3.115 2.532-7.39 5.5-9.5 6.594-2.109 1.095-4.06 2.22-4.335 2.5-1.207 1.23-13.056 6.345-18.5 7.985-2.2.663-5.554 1.677-7.453 2.253-1.899.577-6.399 1.431-10 1.898-15.076 1.957-20.976 4.029-30.204 10.608-8.063 5.748-17.371 18.875-21.815 30.766C66.856 115.311 63 130.992 63 134.014c0 1.092-.929 2.915-2.064 4.05-1.783 1.783-2.839 1.978-7.75 1.434-5.569-.618-7.204-1.127-14.081-4.388-4.673-2.216-11.214-8.707-13.978-13.872-2.599-4.857-4.379-11.343-4.976-18.134-.713-8.099-2.478-10.641-5.901-8.498-3.712 2.324-2.18 17.218 2.913 28.3 3.136 6.825 11.988 16.476 17.382 18.949 9.204 4.221 9.821 4.394 20.687 5.789 2.602.334 5.245 1.225 5.872 1.981.628.756 1.723 1.375 2.435 1.375s1.444.346 1.628.768c.183.423 2.808 2.309 5.833 4.191 3.025 1.883 9.246 6.093 13.825 9.354l8.324 5.931-.495 7.128c-.273 3.92-1.034 10.931-1.692 15.579l-1.196 8.45 2.572 2.05c1.414 1.127 4.279 2.945 6.367 4.039 2.087 1.095 4.02 2.22 4.295 2.5.727.741 4.258 2.914 6 3.693.825.369 3.245 1.758 5.379 3.088l3.878 2.416 2.059-2.059c1.764-1.764 1.883-2.386.829-4.343-.676-1.257-2.942-3.112-5.035-4.122-2.093-1.01-6.011-3.5-8.708-5.533-4.04-3.047-4.955-4.322-5.203-7.249-.193-2.29.251-4.009 1.25-4.839.853-.708 1.551-1.752 1.551-2.32 0-.568 1.125-2.508 2.5-4.311s2.5-3.603 2.5-4c0-1.691 5.245-7.412 6.801-7.418 5.343-.02 11.901-8.293 14.663-18.497 1.713-6.329 1.725-7.057.189-11.928-1.898-6.02-7.391-12.9-11.967-14.989-6.435-2.937-10.973-4.579-12.653-4.579-2.468 0-5.033-3.214-5.033-6.306 0-4.096 3.847-6.105 10.105-5.274 2.788.369 5.818 1.051 6.732 1.515.915.464 3.435 1.681 5.601 2.704 4.598 2.173 14.454 11.741 16.429 15.949.751 1.602 1.876 3.812 2.5 4.912.774 1.367 1.23 14.183 1.439 40.483.266 33.583.509 38.707 1.905 40.25 2.24 2.476 21.101 2.591 24.824.152 5.66-3.709 1.508-7.385-8.341-7.385-6.591 0-7.28-.202-8.849-2.596-1.487-2.269-1.547-3.244-.476-7.75a348.637 348.637 0 0 0 2.129-9.654c.497-2.475 1.64-7.425 2.539-11 .899-3.575 2.013-8.525 2.476-11 .87-4.658 2.488-11.242 4.074-16.571.502-1.689.913-3.956.913-5.038 0-3.618 3.541-12.076 7.54-18.014 2.178-3.232 4.23-6.102 4.561-6.377.33-.275 1.777-2.379 3.215-4.676 2.153-3.437 16.68-24.256 19.417-27.825.422-.55 2.027-2.688 3.568-4.75L207.102 82h14.249C236.726 82 238 81.607 238 76.859c0-1.508.45-3.019 1-3.359.55-.34 1-1.311 1-2.158s.725-3.067 1.61-4.933c2.178-4.59 1.29-6.409-3.128-6.409-6.193 0-10.003-2.587-16.935-11.5-2.139-2.75-4.198-5.364-4.576-5.808-.378-.445-1.445.68-2.371 2.5a128.942 128.942 0 0 1-3.478 6.308c-.986 1.65-3.273 5.7-5.083 9-5.316 9.696-7.769 12.5-10.935 12.5-3.791 0-5.124-1.728-9.643-12.5-.692-1.65-2.429-5.481-3.86-8.514-1.43-3.033-2.601-6.016-2.601-6.628 0-.612-.562-1.552-1.25-2.089-.888-.694-2.89.357-6.915 3.627M129.36 181.04c-.572.572-2.519 1.833-4.327 2.803-2.884 1.546-8.033 8.65-8.033 11.083 0 .48 1.912 1.866 4.25 3.08 2.338 1.215 5.938 3.925 8 6.023l3.75 3.814v-13.922c0-10.756-.296-13.921-1.3-13.921-.715 0-1.768.468-2.34 1.04m-98.505 3.467c-4.384 2.874-7.019 6.531-8.836 12.265-.971 3.066-2.365 4.889-4.936 6.46C8.397 208.538 5 213.929 5 222.408 5 232.255 4.182 232 35.716 232h26.271l3.007-4.15C67.566 224.299 68 222.805 68 217.5c0-5.37-.424-6.789-3.17-10.6-4.378-6.078-9.91-9.9-14.329-9.9-2.428 0-4.783-2.867-5.821-7.088-.35-1.423-1.579-3.785-2.731-5.25-2.622-3.334-6.169-3.383-11.094-.155m2.77 17.618c-.924 4.62-.835 4.875 1.701 4.875 2.57 0 6.674 3.775 6.674 6.14 0 2.491-4.386 5.864-7.564 5.816-1.615-.024-4.736-.692-6.936-1.485-6.358-2.29-9.5-1.592-9.5 2.111 0 .23 8.55.418 19 .418h19v-2.423c0-3.525-5.114-8.18-9.812-8.931C42.173 208.004 36 202.953 36 200.31c0-2.591-1.763-1.243-2.375 1.815" fill="#1976D2" fill-rule="evenodd"/><path fill-opacity=".6" d="M175.405 28.154c-5.827 6.587-28.71 21.098-37.905 24.037-7.033 2.248-18.235 4.786-21.169 4.797-4.701.018-15.146 2.87-20.801 5.681C73.933 73.401 59.488 93.815 53.545 122c-.933 4.423-2.002 5.278-5.605 4.487-4.709-1.034-13.068-9.772-14.816-15.487-.757-2.475-1.609-7.838-1.893-11.919-.495-7.127-.684-7.586-4.785-11.688-4.854-4.854-9.414-6.219-14.818-4.435C7.255 84.401 3 87.679 3 89.604c0 .802-.675 1.718-1.5 2.034-1.193.458-1.5 2.598-1.5 10.469C0 107.723.413 112 .955 112c.525 0 1.232 1.688 1.572 3.75.674 4.094.97 4.89 5.116 13.75 4.02 8.592 15.338 19.71 24.115 23.69 7.5 3.4 15.882 5.81 20.212 5.81 1.934 0 6.897 2.694 15.201 8.25 13.365 8.943 15.067 10.47 14.207 12.75-.832 2.205-2.306 11.626-2.896 18.5-.755 8.811 1.088 11.733 11.518 18.266 4.675 2.928 9.4 5.765 10.5 6.304 1.1.539 4.7 2.531 8 4.426 9.367 5.379 17.034 4.18 22.518-3.521 2.186-3.071 4.463-3.067 5.267.008.266 1.015 2.326 3.009 4.579 4.431C144.767 230.878 145.623 231 159 231c13.305 0 14.25-.133 18.056-2.535 2.209-1.395 4.898-3.982 5.977-5.75 5.394-8.848-1.391-21.179-12.481-22.683-3.612-.49-4.02-.82-3.759-3.041.291-2.466 2.415-12.231 4.132-18.991.489-1.925 1.631-6.875 2.539-11 5.559-25.255 5.842-25.977 15.538-39.728 4.953-7.025 9.447-13.447 9.988-14.272.54-.825 3.936-5.662 7.546-10.75l6.563-9.25h14.878c14.482 0 14.928-.063 16.751-2.382 1.031-1.31 2.465-4.347 3.187-6.75.722-2.402 1.673-5.268 2.114-6.368.441-1.1 1.576-4.475 2.523-7.5.947-3.025 2.144-6.435 2.661-7.577.517-1.142.793-3.614.613-5.493-.367-3.843-2.132-5.04-10.337-7.005-8.765-2.099-10.621-3.151-14.718-8.341-2.206-2.796-6.049-7.446-8.538-10.334L217.708 26h-20.199c-19.423 0-20.272.083-22.104 2.154m13.753 8.727c-.984.624-1.07 1.354-.323 2.735.561 1.036 2.256 4.697 3.768 8.134 1.511 3.438 3.086 6.25 3.499 6.25.413 0 1.376-1.237 2.139-2.75.763-1.513 2.81-5.294 4.549-8.402 2.667-4.769 2.918-5.746 1.604-6.25-2.345-.9-13.703-.689-15.236.283M168 47.521c-4.675 3.503-11.2 7.684-14.5 9.291C142.869 61.987 126.347 67 119.921 67c-4.601 0-14.403 2.704-20.921 5.771-11.759 5.534-20.632 15.043-27.947 29.954-3.635 7.41-9.053 25.759-9.053 30.66 0 3.112-2.993 5.615-6.714 5.615-4.082 0-12.956-2.867-17.286-5.585-10.021-6.29-17-19.494-17-32.164 0-7-4.674-10.72-8.571-6.822-3.209 3.208-.865 19.622 4.326 30.29 4.022 8.268 12.413 15.853 22.245 20.109C43.466 146.761 52.288 149 55.438 149c3.669 0 34.655 19.936 36.581 23.536 1.185 2.214.554 6.987-3.125 23.619-.772 3.489-.719 5.152.213 6.644 1.047 1.677 11.901 8.821 15.334 10.094.582.216 2.403 1.341 4.045 2.5 8.657 6.11 14.514 6.135 14.514.062 0-2.594-1.914-4.391-8.5-7.982-8.603-4.69-11.5-7.291-11.5-10.324 0-1.512.394-3.176.876-3.699.483-.522 2-2.975 3.372-5.45a779.657 779.657 0 0 1 4.374-7.778c1.185-2.068 3.723-4.158 6.878-5.664 6.952-3.318 10.139-7.073 13.205-15.558 1.507-4.17 1.717-16.621.295-17.5-.55-.34-1.013-1.379-1.029-2.309-.035-2.005-4.233-6.803-9.034-10.325-3.083-2.262-5.712-3.29-13.937-5.453-3.571-.939-5-2.334-5-4.88 0-5.125 6.218-6.944 13.628-3.988 6.85 2.733 8.789 3.805 13.221 7.311 6.306 4.988 7.986 7.001 10.975 13.144l2.676 5.5.261 38.5c.311 45.974-1.068 42.008 14.6 41.985 11.143-.016 14.948-1.201 15.466-4.815.547-3.819-1.369-4.928-9.193-5.323-7.663-.387-10.627-1.926-10.641-5.526-.004-1.001 1.14-6.546 2.543-12.321 2.826-11.641 5.127-21.428 6.464-27.5.823-3.738 1.749-7.729 5.375-23.165 1.184-5.041 3.285-8.776 11.535-20.5 5.548-7.884 10.462-14.797 10.919-15.361.457-.564 1.685-2.364 2.728-4 4.34-6.806 11.866-17.094 13.698-18.724 1.678-1.494 4.064-1.75 16.276-1.75h14.31l.707-3.217c.388-1.77 1.045-3.907 1.458-4.75.414-.843 1.551-3.963 2.528-6.933 2.131-6.482 1.761-6.946-7.153-8.955-5.637-1.271-6.148-1.658-12.314-9.319l-6.433-7.992-1.795 2.333c-.987 1.283-1.805 2.675-1.817 3.094-.012.418-2.272 4.351-5.022 8.739-2.75 4.388-5 8.217-5 8.509 0 .292-1.131 2.322-2.513 4.511-1.861 2.949-3.175 3.98-5.071 3.98-2.287 0-5.416-1.965-5.416-3.401 0-.299-1.159-3.144-2.576-6.322a2442.068 2442.068 0 0 1-3.894-8.777c-4.643-10.564-5.618-12.492-6.285-12.424-.41.041-4.57 2.942-9.245 6.445M131 178.89c0 .489-1.952 1.807-4.339 2.929-4.06 1.909-6.338 4.345-9.394 10.045-1.929 3.6-1.586 4.516 2.483 6.622 5.546 2.87 11.25 7.483 11.25 9.098 0 1.913 1.639 1.799 2.393-.166.79-2.059.79-25.777 0-27.836-.645-1.682-2.393-2.187-2.393-.692m-98.862 6.271c-4.577 2.265-7.513 6.049-9.105 11.73-1.01 3.607-4.629 8.109-6.517 8.109-1.619 0-7.385 5.845-9.167 9.293-.829 1.603-1.563 5.284-1.631 8.179-.205 8.754-.989 8.528 29.556 8.528 28.738 0 27.097.309 30.476-5.736 1.881-3.367 1.539-11.779-.653-16.054-2.743-5.35-6.436-8.428-12.891-10.746-5.765-2.071-6.17-2.517-9.636-10.605-1.371-3.2-3.218-4.861-5.402-4.858-.367 0-2.631.972-5.03 2.16m.792 15.523c-1.607 4.227-.815 6.771 2.216 7.122 1.455.169 3.465 1.212 4.467 2.319 1.657 1.831 1.686 2.253.322 4.693-1.994 3.569-8.065 4.132-13.939 1.294-4.638-2.241-6.194-1.985-8.398 1.379-1.366 2.085-1.364 2.385.021 2.916.85.326 9.518.593 19.263.593C55.327 221 57 220.64 57 216.668c0-2.561-6.563-8.667-9.321-8.672-3.181-.005-8.54-3.588-10.487-7.011-2.092-3.675-2.956-3.736-4.262-.301" fill="#1976D2" fill-rule="evenodd"/><path fill-opacity=".975" d="M173.342 31.25c-7.918 6.68-12.364 10.049-15.208 11.524-1.446.751-3.306 1.932-4.132 2.626-1.88 1.579-11.052 5.796-17.002 7.818-9.418 3.2-11.744 3.782-15.111 3.782-1.908 0-6.06.675-9.228 1.5-3.167.825-6.524 1.514-7.46 1.531-.935.017-3.951 1.138-6.701 2.491-2.75 1.353-5.357 2.464-5.793 2.469-1.485.017-12.194 8.401-16.556 12.962-9.893 10.343-19.301 29.806-21.661 44.81-.915 5.818-2.857 6.644-8.841 3.759-6.406-3.087-9.198-5.876-12.167-12.151-1.831-3.872-2.482-6.912-2.482-11.597 0-8.332-2.944-14.396-8.5-17.503-2.2-1.231-5.168-2.246-6.596-2.255-3.569-.022-8.581 2.636-10.668 5.659-.955 1.384-2.523 3.373-3.486 4.42-2.273 2.475-2.443 12.355-.25 14.548.825.825 1.5 2.802 1.5 4.393 0 3.634 2.34 10.84 5.819 17.918 5.789 11.777 21.862 24.041 34.681 26.462 11.649 2.2 13.134 2.845 25.677 11.163 7.122 4.724 13.174 9.173 13.449 9.888.274.714-.24 3.838-1.142 6.941-.902 3.104-1.718 9.344-1.812 13.867-.197 9.417.951 11.75 7.794 15.839 2.197 1.312 6.028 3.602 8.514 5.089 2.486 1.487 5.962 3.441 7.724 4.342 1.762.902 3.73 2.273 4.372 3.047.643.774 1.987 1.408 2.987 1.408 1.001 0 2.097.45 2.437 1 .85 1.376 6.81 1.257 10.203-.204 3.537-1.523 6.059-4.04 7.287-7.27 1.262-3.32 3.748-3.214 5.27.224 3.043 6.877 6.798 8.25 22.568 8.25 16.428 0 19.709-1.198 23.922-8.736 2.326-4.163 1.148-11.039-2.673-15.597-1.801-2.147-7.408-4.66-10.449-4.682-4.483-.033-4.875-1.133-3.065-8.58.924-3.798 2.046-8.705 2.494-10.905.449-2.2 1.546-6.925 2.439-10.5s2.008-8.525 2.478-11c.47-2.475 1.343-5.767 1.94-7.315s1.108-4.023 1.134-5.5c.026-1.477.814-4.136 1.75-5.91 1.831-3.471 11.177-17.45 12.217-18.275.347-.275.913-1.175 1.259-2 .345-.825 5.042-7.575 10.438-15l9.811-13.5 14.941-.278c16.129-.3 18.536-1.055 18.536-5.818 0-1.257.45-2.564 1-2.904.55-.34 1-1.476 1-2.525s.631-3.385 1.402-5.191c.771-1.806 2.213-5.984 3.205-9.284.992-3.3 2.161-6.428 2.598-6.95 2.348-2.807-1.008-7.05-6.205-7.847-7.336-1.124-12.812-2.879-14.819-4.749-1.145-1.067-5.324-5.993-9.285-10.947L217.694 27H178.38l-5.038 4.25M187 36.973c0 1.023 4.227 10.769 6.518 15.027 1.653 3.072 4.026 3.714 4.8 1.298.316-.989 1.943-4.048 3.615-6.798 3.82-6.284 4.952-8.797 4.391-9.75-.666-1.131-19.324-.916-19.324.223m-10.954 3.757c-.8.315-2.375 1.439-3.5 2.497-4.69 4.411-16.41 11.297-28.546 16.774C138.626 62.426 118.06 67 112.531 67c-1.877 0-3.691.45-4.031 1-.34.55-1.506 1-2.592 1-4.186 0-16.27 7.364-22.947 13.983-6.434 6.379-14.141 19.972-17.302 30.517-3.245 10.827-3.524 11.948-4.221 17-.38 2.75-1.139 5.563-1.687 6.25-2.84 3.564-18.707-1.26-26.42-8.032-6.228-5.469-9.459-13.229-11.23-26.977-.999-7.75-2.239-9.741-6.068-9.741C11.766 92 10 94.785 10 101.513c0 25.046 17.724 44.856 42.887 47.933 4.099.502 7.329 1.896 13.5 5.829 10.801 6.883 24.344 16.481 25.193 17.855.376.608.201 3.414-.388 6.237-.588 2.823-1.837 8.804-2.774 13.291-.936 4.486-1.431 8.866-1.099 9.732.604 1.573 9.747 7.799 19.181 13.06 2.75 1.533 5.888 3.41 6.973 4.169 4.363 3.055 10.527.499 10.527-4.364 0-1.821-6.559-8.255-8.415-8.255-1.079 0-9.002-5.381-10.773-7.317-1.959-2.142-1.642-3.284 2.877-10.385 1.821-2.861 3.311-5.571 3.311-6.022 0-2.063 6.311-8.276 8.406-8.276 2.774 0 8.666-5.72 11.094-10.77.987-2.051 2.178-4.511 2.647-5.466.469-.955.853-5.111.853-9.235 0-6.551-.372-8.104-2.946-12.287-2.949-4.793-7.271-9.242-8.978-9.242-.5 0-1.059-.338-1.243-.75-.61-1.373-7.861-4.25-10.712-4.25-4.648 0-7.771-4.95-4.921-7.8 2.663-2.663 14.293.179 21.69 5.3 3.677 2.546 10.77 10.374 12.248 13.516 3.652 7.767 3.862 10.329 3.862 47.15 0 34.114.121 36.633 1.829 38.179 1.496 1.354 4.102 1.655 14.345 1.655 10.855 0 12.736-.243 14.171-1.829 1.936-2.139 2.171-6.255.455-7.971-.709-.709-4.121-1.2-8.345-1.2-8.423 0-11.209-1.868-10.017-6.715.377-1.532 1.086-4.81 1.575-7.285.489-2.475 1.622-7.425 2.516-11 .895-3.575 1.983-8.3 2.418-10.5.435-2.2 1.345-6.25 2.023-9 .678-2.75 1.601-6.575 2.051-8.5.45-1.925 1.53-6.306 2.399-9.735.869-3.429 1.58-6.987 1.58-7.906 0-.918 1.125-3.145 2.5-4.948 1.375-1.803 2.5-3.758 2.5-4.344 0-.587.353-1.067.784-1.067.432 0 1.647-1.463 2.701-3.25 2.509-4.255 24.532-35.318 27.987-39.474l2.679-3.223 14.559-.277 14.559-.276 2.126-6.5c1.169-3.575 2.399-6.95 2.734-7.5 1.487-2.444 1.943-8.533.669-8.925a780.006 780.006 0 0 0-7.665-2.211c-5.366-1.528-6.937-2.523-10-6.334-7.318-9.108-8.995-10.603-10.695-9.53-.871.55-3.199 3.925-5.172 7.5-1.973 3.575-4.396 7.85-5.384 9.5a125.31 125.31 0 0 0-3.396 6.129c-.879 1.72-2.698 4.161-4.042 5.424L195 72.349l-2.291-2.153c-1.26-1.184-2.9-3.85-3.644-5.924-.744-2.075-2.447-6.247-3.784-9.272l-3.76-8.5c-.73-1.65-1.582-3.788-1.893-4.75-.588-1.821-1.145-1.979-3.582-1.02M128.5 179.531c-1.65 1.352-3.757 2.461-4.682 2.464-1.649.005-5.818 4.869-5.818 6.787 0 .535-.675 1.533-1.5 2.218-2.999 2.489-1.773 5.531 3.566 8.851 2.787 1.732 5.387 3.149 5.778 3.149 1.112 0 4.162 3.885 5.206 6.633 2.084 5.479 2.95.871 2.95-15.692 0-18.522-.115-18.824-5.5-14.41m-100.171 9.987C25.165 192.82 24 194.853 24 197.074c0 2.148-.945 3.902-3.223 5.982-1.772 1.619-3.709 2.944-4.304 2.944-1.823 0-7.201 6.28-8.882 10.372-2.121 5.162-2.026 9.924.238 11.973 1.603 1.451 4.969 1.651 27.25 1.623 27.216-.034 27.381-.063 29.683-5.265 2.676-6.048.917-14.52-4.151-19.988C58.133 202.041 50.237 198 47.49 198c-1.261 0-6.49-9.618-6.49-11.938 0-.584-1.877-1.062-4.171-1.062-3.641 0-4.722.575-8.5 4.518m4.228 8.705c-.856 1.222-1.557 3.872-1.557 5.888 0 3.387.262 3.716 3.444 4.312 5.823 1.093 6.236 8.577.473 8.577C31.361 217 24 214.813 24 213.757c0-.417-.86-.757-1.911-.757-2.162 0-7.404 5.682-6.537 7.085.313.505 9.719.915 21.007.915H57v-3.864c0-4.423-3.559-8.802-7.907-9.73-5.222-1.113-9.42-3.947-11.344-7.656-2.252-4.343-3.055-4.579-5.192-1.527" fill="#1976D2" fill-rule="evenodd"/></svg>